PathFileType	4	(X/Y/Z)	TRC_missing_Z7.trc
DataRate	CameraRate	NumFrames	NumMarkers	Units	OrigDataRate	OrigDataStartFrame	OrigNumFrames
100.0	100.0	4	37	mm	100.0	1305	2609	
Frame#	Time	T10			C7			CLAV			RACR1			LACR1			RPSI			LPSI			RASI			LASI			LTH2			LTH3			LTH1			RTH2			RTH3			RTH1			RLFC			RMFC			RTB1			RTB3			RTB2			LLFC			LMFC			LTB1			LTB3			LTB2			LLMAL			LCAL			LMMAL			RLMAL			RMMAL			RCAL			RMT5			RMT1			RToe			LMT5			LMT1			LToe			
		X1	Y1	Z1	X2	Y2	Z2	X3	Y3	Z3	X4	Y4	Z4	X5	Y5	Z5	X6	Y6	Z6	X7	Y7	X8	Y8	Z8	X9	Y9	Z9	X10	Y10	Z10	X11	Y11	Z11	X12	Y12	Z12	X13	Y13	Z13	X14	Y14	Z14	X15	Y15	Z15	X16	Y16	Z16	X17	Y17	Z17	X18	Y18	Z18	X19	Y19	Z19	X20	Y20	Z20	X21	Y21	Z21	X22	Y22	Z22	X23	Y23	Z23	X24	Y24	Z24	X25	Y25	Z25	X26	Y26	Z26	X27	Y27	Z27	X28	Y28	Z28	X29	Y29	Z29	X30	Y30	Z30	X31	Y31	Z31	X32	Y32	Z32	X33	Y33	Z33	X34	Y34	Z34	X35	Y35	Z35	X36	Y36	Z36	X37	Y37	Z37	
1305	13.04	698.8454	1219.8936	-511.31744	691.74579	1475.6284	-386.00943	714.49835	1319.1256	-288.81732	540.01672	1420.3933	-349.5462	875.05267	1423.4176	-390.24457	657.05273	1010.7222	-584.67157	744.84155	1005.9403	-578.92914	559.67859	965.00372	-359.91821	813.62659	964.68549	-342.25452	848.20819	722.12085	-299.61276	882.65082	767.91315	-350.97452	838.55121	856.66876	-328.36279	567.53528	678.5191	-415.04233	523.91852	751.92975	-425.9205	579.00201	791.10468	-365.65302	562.70081	488.34869	-555.01599				609.60223	371.80493	-568.36749	585.99493	312.27579	-623.89923	613.38531	262.91351	-641.81232	818.67175	507.83963	-278.62448				770.38354	398.02643	-235.37419	802.63831	331.61743	-259.74323	764.23389	278.49689	-255.29396	796.84473	80.704147	-323.73776	751.36194	32.909744	-377.08038				600.46082	120.43338	-779.11615				640.51196	107.80103	-854.82001	598.13593	45.218307	-694.71637	675.90381	47.054535	-668.41528				816.14465	49.089432	-207.09459	748.79779	61.503769	-177.43744			
1306	13.05	700.39838	1219.7074	-510.7298	693.33154	1475.6698	-385.88821	715.85406	1319.2927	-288.34003	541.47101	1420.5013	-349.58212	876.63916	1423.3186	-389.65631	658.50226	1010.4662	-583.69385	746.32367	1005.9806	-577.8927	560.98761	964.76294	-359.14084	814.88525	964.79382	-341.14175	848.58124	721.36432	-299.23782	883.26898	767.53876	-349.88876	839.70679	856.16211	-327.2345	568.45837	678.03925	-414.18997	525.15393	751.51508	-425.09177	580.26154	790.73938	-364.85239	563.05914	488.18457	-554.83252				609.38641	371.66403	-569.65375	585.81824	313.32455	-626.23877	612.99103	264.07339	-644.84796	819.04578	506.4209	-280.68362				770.01422	396.34354	-238.64093	802.39722	330.11688	-263.20007	763.79993	277.04425	-259.64499	796.69031	80.219383	-330.07565	751.60724	32.885944	-384.24188				600.14917	123.82684	-784.48889				640.51642	113.30402	-860.00293	598.16614	45.421944	-703.09784	675.89319	46.859543	-677.38214				815.72888	48.161587	-213.72063	748.05768	60.222401	-184.17369			
1307	13.06	701.97961	1219.5697	-510.10477	694.96735	1475.7632	-385.73892	717.21423	1319.5155	-287.82431	542.95801	1420.6945	-349.6069	878.26923	1423.2528	-388.97348	659.9444	1010.2374	-582.67914	747.79956	1006.0847	-576.82373	562.32324	964.55615	-358.32651	816.16266	964.96387	-340.00021	849.02887	720.53925	-298.86722	883.99927	767.23401	-348.86142	840.91626	855.70538	-326.12296	569.32111	677.5896	-412.99731	526.35968	751.12524	-424.04773	581.53076	790.45868	-363.89597	563.3219	487.96417	-554.11542				609.02753	371.4964	-570.39612	585.54083	314.40958	-628.0697	612.47791	265.285	-647.3786	819.52112	505.03879	-282.96695				769.77252	394.6572	-242.24345	802.24646	328.63995	-267.10132	763.45947	275.6142	-264.47134	796.54102	79.846146	-337.13287	751.81537	33.004963	-392.11459				599.82367	127.39342	-789.39594				640.58276	119.1252	-864.58313	598.22522	45.689636	-711.39203	675.91284	46.711597	-686.31647				815.41565	47.257988	-221.07381	747.41779	58.976097	-191.58243			
1308	13.07	703.58472	1219.4812	-509.45108	696.64716	1475.907	-385.56509	718.57239	1319.7902	-287.27722	544.47229	1420.9705	-349.62381	879.93591	1423.2188	-388.20132	661.37921	1010.036	-581.64252	749.26868	1006.252	-575.73541	563.68097	964.38361	-357.48978	817.45477	965.19458	-338.84225	849.55719	719.62488	-298.52411	884.85107	766.99854	-347.9437	842.17926	855.29877	-325.04517	570.11139	677.17761	-411.4679	527.526	750.7666	-422.79892	582.80078	790.26843	-362.79526	563.48138	487.68793	-552.84613				608.52338	371.30487	-570.56635	585.16223	315.52808	-629.35913	611.8457	266.54703	-649.36761	820.09589	503.70251	-285.48785				769.6629	392.9845	-246.1658	802.19086	327.19458	-271.41525	763.21936	274.21674	-269.72061	796.40363	79.562897	-344.7804	751.99115	33.229321	-400.54974				599.48401	131.13087	-793.78619				640.70715	125.25324	-868.50677	598.31219	46.043751	-719.54413	675.96057	46.631168	-695.159				815.20642	46.39127	-229.00629	746.88	57.79121	-199.52361			
